HIERARCHY
ROOT hip
{
	OFFSET 0.000000 0.000000 0.000000 
	CHANNELS 6 Xposition Yposition Zposition Xrotation Zrotation Yrotation
	JOINT abdomen
	{
		OFFSET 0.000000 3.402643 0.000000 
		CHANNELS 3 Xrotation Zrotation Yrotation
		JOINT chest
		{
			OFFSET 0.000000 8.438565 -0.680529 
			CHANNELS 3 Xrotation Zrotation Yrotation
			JOINT neck
			{
				OFFSET 0.000000 10.207942 -0.272212 
				CHANNELS 3 Xrotation Zrotation Yrotation
				JOINT head
				{
					OFFSET 0.000000 3.130431 0.000000 
					CHANNELS 3 Xrotation Zrotation Yrotation
					End Site
					{
						OFFSET 0.000000 3.130435 0.000000 
					}
				}
			}
			JOINT lCollar
			{
				OFFSET 3.470700 6.669187 -0.816635 
				CHANNELS 3 Yrotation Zrotation Xrotation
				JOINT lShldr
				{
					OFFSET 3.198488 0.000000 0.000000 
					CHANNELS 3 Zrotation Yrotation Xrotation
					JOINT lForeArm
					{
						OFFSET 10.139888 0.000000 0.000000 
						CHANNELS 3 Yrotation Zrotation Xrotation
						JOINT lHand
						{
							OFFSET 8.370511 0.000000 0.000000 
							CHANNELS 3 Zrotation Yrotation Xrotation
							End Site
							{
								OFFSET 4.083176 0.000000 0.000000 
							}
						}
					}
				}
			}
			JOINT rCollar
			{
				OFFSET -3.470700 6.669187 -0.816635 
				CHANNELS 3 Yrotation Zrotation Xrotation
				JOINT rShldr
				{
					OFFSET -3.198488 0.000000 0.000000 
					CHANNELS 3 Zrotation Yrotation Xrotation
					JOINT rForeArm
					{
						OFFSET -10.139888 0.000000 0.000000 
						CHANNELS 3 Yrotation Zrotation Xrotation
						JOINT rHand
						{
							OFFSET -8.370511 0.000000 0.000000 
							CHANNELS 3 Zrotation Yrotation Xrotation
							End Site
							{
								OFFSET -4.083176 0.000000 0.000000 
							}
						}
					}
				}
			}
		}
	}
	JOINT lThigh
	{
		OFFSET 5.308129 -1.633274 1.361059 
		CHANNELS 3 Xrotation Zrotation Yrotation
		JOINT lShin
		{
			OFFSET -2.041588 -20.007561 0.000000 
			CHANNELS 3 Xrotation Zrotation Yrotation
			JOINT lFoot
			{
				OFFSET 0.000000 -19.190928 -1.224953 
				CHANNELS 3 Xrotation Yrotation Zrotation
				End Site
				{
					OFFSET 0.000000 -2.449906 4.627600 
				}
			}
		}
	}
	JOINT rThigh
	{
		OFFSET -5.308129 -1.633274 1.361059 
		CHANNELS 3 Xrotation Zrotation Yrotation
		JOINT rShin
		{
			OFFSET 2.041588 -20.007561 0.000000 
			CHANNELS 3 Xrotation Zrotation Yrotation
			JOINT rFoot
			{
				OFFSET 0.000000 -19.190928 -1.224953 
				CHANNELS 3 Xrotation Yrotation Zrotation
				End Site
				{
					OFFSET 0.000000 -2.449906 4.627600 
				}
			}
		}
	}
}
MOTION
Frames: 18
Frame Time: 0.033333
24.047226 48.915787 -12.346475 0.641132 -0.331932 13.799043 0.000000 0.000000 0.000000 -3.939953 -0.898422 -0.341908 6.235746 -1.054396 -1.347967 5.263711 1.932978 -1.445807 -0.814049 9.606400 -3.030602 -5.590629 0.652984 -20.769838 2.678571 -3.814248 26.673487 0.829665 -0.937918 -3.470470 -0.497081 -11.141823 -3.073897 2.316769 -10.632911 -14.858971 -1.288585 6.800495 15.785768 -11.859681 -4.173250 -3.437708 1.102126 10.021936 5.309995 9.860782 -2.021919 12.081294 -8.691420 0.768829 -10.079483 2.069927 -10.293405 -9.095414 9.282804 2.885325 -10.544104 -8.623473 -0.759134 9.609499 
24.053543 48.905464 -12.321607 0.589971 -0.379240 13.867460 0.000000 0.000000 0.000000 -3.958622 -0.869118 -0.410257 6.234480 -1.015352 -1.328436 5.339198 1.796392 -1.328697 -0.895450 9.698903 -3.041786 -5.650830 0.706646 -20.737637 2.672978 -3.819925 26.457922 0.287855 -0.882759 -3.441633 -0.611492 -11.018427 -3.093051 2.213605 -10.418634 -14.975738 -1.315433 6.794517 15.933479 -12.056758 -4.148879 -3.441321 1.004707 10.141125 5.386223 10.115435 -2.061312 11.888099 -8.842889 0.775121 -10.102244 2.099231 -10.214493 -9.029950 9.349467 2.827057 -10.699708 -8.670659 -0.743920 9.671592 
24.074739 48.892277 -12.299520 0.679572 -0.369603 13.965115 0.000000 0.000000 0.000000 -4.103433 -0.908169 -0.498139 6.088625 -1.034874 -1.338202 5.642254 1.864776 -1.270130 -0.918098 9.752433 -3.179773 -5.712452 0.661414 -20.638580 2.673755 -3.909964 26.216185 0.392893 -0.837250 -3.452808 -0.668496 -10.897887 -3.221394 1.957684 -10.322453 -14.806986 -1.337870 6.860415 16.043602 -11.933734 -4.237120 -3.429181 0.818703 10.166983 5.433811 10.386447 -2.148197 11.875362 -8.967196 0.832250 -10.121913 1.989147 -10.304006 -9.094754 9.572088 2.894280 -10.622043 -8.849364 -0.772230 9.684439 
24.110584 48.910141 -12.278417 0.546889 -0.274833 13.964960 0.000000 0.000000 0.000000 -4.045468 -0.947238 -0.439555 6.097587 -0.986051 -1.357725 5.711574 1.767117 -1.309176 -1.023540 9.795732 -3.121928 -5.848013 0.625213 -20.915678 2.682479 -3.715901 26.532539 0.127669 -0.657575 -3.448611 -0.699793 -10.720168 -3.179363 1.722713 -10.280842 -14.670467 -1.315888 6.945610 15.840085 -11.903111 -3.968836 -3.449387 1.189819 10.001267 5.379209 9.936192 -2.079191 12.033589 -8.774857 0.769299 -10.070939 2.420556 -10.416989 -9.302732 9.139875 2.986429 -10.439732 -8.672318 -0.753166 9.613486 
24.138020 48.910889 -12.251638 0.581747 -0.331737 13.935761 0.000000 0.000000 0.000000 -4.163560 -0.888649 -0.410258 6.029748 -1.015344 -1.347964 5.703763 1.962299 -1.406763 -1.015319 9.817504 -3.221460 -5.883056 0.678598 -21.411621 2.681613 -3.251267 28.856695 -0.629729 -2.081959 -3.383537 -0.772293 -10.774582 -3.290331 1.867651 -10.153692 -14.774601 -1.279562 6.924467 15.761404 -11.670877 -4.079286 -3.438706 1.132324 10.008101 5.339015 9.994350 -2.039969 12.003797 -8.824290 0.804658 -10.077269 2.546787 -10.395164 -9.313867 8.866043 3.015256 -10.368081 -8.603161 -0.734543 9.631312 
24.161480 48.895405 -12.247223 0.677500 -0.502682 13.779783 0.000000 0.000000 0.000000 -4.291815 -0.742170 -0.390719 5.872051 -1.044681 -1.230798 5.676726 2.206329 -1.446121 -0.854993 10.036501 -3.342107 -5.943675 0.764666 -20.941788 2.677702 -3.513879 28.562811 0.042247 -2.345402 -3.417105 -0.648377 -10.781537 -3.409152 2.086929 -10.221215 -15.108935 -1.251269 6.763442 16.060776 -11.509095 -3.862458 -3.463590 0.702254 10.154963 5.381134 10.660479 -2.070424 12.285091 -9.133191 0.843099 -10.121324 2.341785 -10.277176 -9.199397 8.957129 3.009418 -10.225400 -8.652411 -0.765056 9.629044 
24.198473 48.884338 -12.242160 0.530611 -0.512634 13.564948 0.000000 0.000000 0.000000 -4.215739 -0.654290 -0.263766 5.851075 -1.034943 -1.162449 5.585686 2.225785 -1.514805 -0.698483 10.074890 -3.273275 -5.993383 0.705948 -20.919374 2.685006 -3.483955 28.835436 0.038023 -2.110862 -3.417089 -0.564682 -10.776564 -3.328777 2.129756 -10.180216 -15.185129 -1.242951 6.736282 16.138357 -11.185346 -4.017399 -3.460005 0.867570 10.120494 5.362254 10.870088 -1.989874 12.347479 -9.351428 0.845107 -10.223152 2.389730 -10.245986 -9.099066 9.050692 2.917340 -10.176806 -8.641705 -0.749415 9.732729 
24.239716 48.883953 -12.263865 0.573165 -0.503429 13.428237 0.000000 0.000000 0.000000 -4.176931 -0.673823 -0.234474 5.721501 -0.898250 -1.172037 5.581213 2.079389 -1.475410 -0.492671 10.141191 -3.254227 -5.985121 0.614100 -21.028519 2.721819 -3.440583 28.892523 -0.484789 -2.044146 -3.398913 0.150882 -10.904189 -3.230946 2.436182 -10.933934 -14.715484 -1.217802 6.768573 15.696281 -11.376796 -3.933093 -3.466632 0.721052 10.031513 5.313364 11.031725 -1.972755 12.818102 -9.363745 0.852138 -10.220309 2.331522 -10.404613 -9.250167 9.057444 3.071439 -9.883306 -8.644253 -0.740925 9.640079 
24.277960 48.867603 -12.308503 0.296922 -0.570698 13.096306 0.000000 0.000000 0.000000 -3.886100 -0.605468 -0.058694 5.741887 -0.458887 -1.181681 5.712798 1.640158 -1.367745 -0.421107 10.601780 -2.970471 -6.777117 0.629869 -21.086777 2.264684 -3.462770 26.839155 0.494683 -0.576670 -3.461980 0.215792 -10.415290 -2.967032 2.588269 -10.885828 -14.994189 -0.995276 6.576358 15.640015 -11.750104 -4.057351 -3.448768 0.663651 10.087864 5.375424 11.714655 -1.904357 12.872864 -9.712026 0.892517 -10.264367 2.420212 -10.434978 -9.334027 9.234564 3.160397 -9.339035 -8.664515 -0.745166 9.584927 
24.273960 48.863964 -12.396850 0.327208 -0.752332 12.794026 0.000000 0.000000 0.000000 -3.720424 -0.546875 -0.029389 5.767365 -0.283147 -1.142612 5.253275 2.225775 -1.524564 -0.017673 10.697404 -2.853683 -7.859751 0.523856 -21.524532 1.472255 -2.987298 26.083153 0.954672 0.870255 -3.481692 -0.409519 -10.529883 -2.878906 4.015615 -9.894508 -16.407726 -0.650418 6.040058 15.986259 -12.364700 -4.228833 -3.424896 0.244041 10.155102 5.292805 12.241583 -1.806678 13.457117 -9.800947 0.913076 -10.375497 2.206257 -10.262622 -9.125617 9.210070 3.138010 -9.010154 -8.614387 -0.746464 9.518513 
24.206972 48.879654 -12.546223 0.748780 -1.221190 12.326995 0.000000 0.000000 0.000000 -3.701046 -0.371094 -0.019594 5.597733 -0.097635 -1.191421 4.731570 3.016157 -1.760001 0.380595 10.609488 -2.861496 -9.341370 0.419688 -22.041746 0.766814 -2.273820 25.421684 2.251549 1.880785 -3.501257 -0.573007 -9.710226 -2.872112 5.135400 -9.070483 -18.558140 -0.327409 5.123364 16.313320 -13.249283 -3.872057 -3.457586 -0.527954 10.570178 5.401637 12.633386 -1.826620 13.911492 -9.807191 0.896928 -10.502115 1.591145 -9.979533 -8.988987 8.831658 3.432174 -8.714981 -8.244843 -0.678295 9.164978 
24.077183 48.834370 -12.781446 1.342751 -1.838897 11.265485 0.000000 0.000000 0.000000 -3.545055 -0.039062 0.195312 5.393554 -0.156223 -1.074241 3.907453 4.176443 -2.261245 0.461561 10.018784 -2.708581 -10.982342 0.717735 -22.104330 0.331644 -1.623201 23.456810 4.298059 3.060520 -3.506190 -0.200851 -8.593849 -2.715219 6.353907 -8.045331 -20.572514 -0.089735 4.390075 15.345966 -14.658688 -2.551959 -3.600979 -2.001975 11.285788 5.628149 14.156143 -1.982965 14.432950 -10.320964 0.976138 -10.705046 0.369962 -9.897064 -9.085827 9.261020 4.222829 -6.829339 -8.530948 -0.639785 8.427472 
23.899569 48.820179 -12.974686 1.266865 -2.757680 10.295127 0.000000 0.000000 0.000000 -2.734661 0.419922 -0.039061 5.343618 0.419847 -1.083955 3.528976 4.664799 -2.115886 0.360745 9.114146 -1.968310 -12.872413 1.209624 -22.555813 0.117046 -0.761114 21.193274 6.004107 2.370120 -3.538765 -0.105207 -6.846070 -1.946580 7.995319 -5.860373 -23.318094 0.037708 3.915046 12.870613 -17.071724 -0.857670 -3.853791 -2.763234 12.310343 5.916674 15.401219 -1.699355 14.931880 -10.655976 1.048213 -11.187509 -1.298820 -9.598781 -8.790323 12.273287 4.742759 -3.239578 -9.096135 -0.659487 7.860786 
23.746525 48.839119 -13.216650 1.105795 -3.927135 8.877923 0.000000 0.000000 0.000000 -1.631289 1.259766 -0.019527 5.326195 0.888535 -1.005890 3.434798 5.678663 -2.394303 0.783838 8.112827 -0.987386 -15.824816 0.753756 -24.821133 0.074246 0.606899 19.590714 5.867321 0.214116 -3.610312 0.157262 -4.153483 -0.929536 8.645835 -3.225360 -25.782896 -1.033734 3.458326 13.393394 -18.441744 1.508701 -4.225224 -3.232150 13.569702 6.410439 16.455059 -1.503872 15.611646 -10.900084 1.128905 -11.609828 -6.785817 -10.289695 -8.887357 22.566175 6.034478 4.141882 -8.275005 -0.427630 6.147631 
23.561485 48.780045 -13.397213 0.824864 -4.763273 7.545310 0.000000 0.000000 0.000000 -0.460963 1.933593 -0.058560 4.922849 1.562036 -1.396764 5.967587 4.518471 -2.095655 1.478675 6.661418 0.048482 -18.950962 -0.478724 -26.294025 0.547784 1.014987 15.616027 5.499024 -2.368331 -3.677832 0.452788 -1.395331 0.146674 13.014710 -7.565954 -25.514837 15.463241 3.918954 10.284457 -17.995176 -0.070491 -3.981080 -3.798627 14.645298 6.812708 18.140865 -1.360308 16.390873 -11.411153 1.233235 -12.158803 -12.066812 -11.831243 -9.134254 32.903217 7.041031 14.562371 -4.763674 -0.100578 2.832762 
23.302942 48.674099 -13.480149 0.857824 -5.131467 6.647719 0.000000 0.000000 0.000000 0.347899 2.187459 -0.351679 5.301548 1.532675 -1.504413 5.807559 5.035543 -2.146700 1.795888 5.025268 0.793561 -26.883400 3.482137 -30.845503 -14.204324 3.015082 16.191240 -0.195686 -0.647739 -3.454631 0.112615 -0.330306 0.898477 18.333534 -10.164883 -24.515835 28.531179 3.298393 13.113739 -14.539813 -2.132025 -3.653709 -4.511514 15.397638 7.066428 19.610405 -1.299994 17.161558 -11.749959 1.339189 -12.821875 -15.299060 -13.159696 -9.871973 38.337288 7.847794 20.265329 -1.264633 0.022302 0.249974 
23.013170 48.579380 -13.389216 0.603762 -5.062380 5.754795 0.000000 0.000000 0.000000 1.141633 2.265532 -0.517946 5.842459 1.327625 -1.572522 6.773445 5.201640 -2.088330 2.111531 3.231469 1.534087 -33.703156 6.373928 -30.262629 -25.679783 2.400112 13.885432 -3.966530 2.740492 -3.464795 -0.417494 0.251892 1.630801 23.321739 -10.920229 -21.639574 36.591873 3.154699 16.042120 -12.430211 -2.957471 -3.545910 -4.169785 15.817876 7.517368 20.256134 -1.378680 17.729399 -11.967591 1.424758 -13.383352 -17.056053 -14.701702 -9.831570 40.033024 7.530298 22.580881 1.566405 0.012953 0.939867 
22.662283 48.537544 -13.216815 0.426700 -4.765601 5.193537 0.000000 0.000000 0.000000 1.670616 2.206846 -0.742389 6.277433 1.376020 -2.109939 9.426328 4.694076 -2.115883 2.502158 1.067622 2.068496 -40.041225 6.297591 -30.828917 -31.758791 3.038440 17.026329 -8.090226 3.824497 -3.533061 -0.771903 1.573975 2.129534 27.056900 -11.959335 -17.294184 43.039829 2.851644 17.947651 -9.979599 -3.184263 -3.521700 -3.261252 16.097176 7.949334 19.612501 -1.443805 17.948549 -11.587454 1.430511 -13.931982 -16.258078 -16.384228 -10.069085 35.987064 6.836717 17.706764 1.533083 0.079135 4.922944 
